<?xml version="1.0" standalone="no"?>
<svg xmlns="http://www.w3.org/2000/svg" xmlns:xlink="http://www.w3.org/1999/xlink" width="364pt" height="188pt" viewBox="0.00 0.00 363.75 188">
<g id="graph0" class="graph" transform="translate(4,184) scale(1)" data-name="G">

<polygon fill="white" stroke="none" points="-4,4 -4,-184 359.75,-184 359.75,4 -4,4"/>
<!-- p -->
<g id="node1" class="node" pointer-events="visible" data-name="polopt" data-comment="p">


<text text-anchor="middle" x="64.58" y="-157.8" font-family="Times,serif" font-size="14.00">Policy Optimization</text></g>
<!-- p -->
<g id="node2" class="node" pointer-events="visible" data-name="polgrad" data-comment="p">


<text text-anchor="middle" x="64.58" y="-85.8" font-family="Times,serif" font-size="14.00">Policy Gradient</text></g>
<!-- a -->
<g id="node3" class="node" pointer-events="visible" data-name="actorcritic" data-comment="a">


<text text-anchor="middle" x="125.58" y="-13.8" font-family="Times,serif" font-size="14.00">Actor-Critic</text></g><g id="edge1" class="edge" data-name="polopt-&gt;polgrad" data-comment="a">

<path fill="none" stroke="black" d="M64.58,-144.05C64.58,-136.57 64.58,-127.58 64.58,-119.14"/>
<polygon fill="black" stroke="black" points="68.08,-119.3 64.58,-109.3 61.08,-119.3 68.08,-119.3"/>
</g>
<!-- t -->
<g id="node4" class="node" pointer-events="visible" data-name="td" data-comment="t">


<text text-anchor="middle" x="259.58" y="-157.8" font-family="Times,serif" font-size="14.00">Temporal Difference</text></g>
<!-- p -->
<g id="node5" class="node" pointer-events="visible" data-name="policyiter" data-comment="p">


<text text-anchor="middle" x="185.58" y="-85.8" font-family="Times,serif" font-size="14.00">Policy Iteration</text></g><g id="edge2" class="edge" data-name="polgrad-&gt;actorcritic" data-comment="p">

<path fill="none" stroke="black" d="M79.34,-72.05C86.61,-63.71 95.52,-53.49 103.57,-44.25"/>
<polygon fill="black" stroke="black" points="106.02,-46.77 109.95,-36.93 100.74,-42.17 106.02,-46.77"/>
</g>
<!-- v -->
<!-- valueiter -->
<!-- valueiter -->
<g id="node6" class="node" pointer-events="visible" data-name="valueiter">


<text text-anchor="middle" x="305.58" y="-85.8" font-family="Times,serif" font-size="14.00">Value Iteration</text></g>
<!-- q -->
<!-- qlearning -->
<g id="edge5" class="edge" data-name="td-&gt;valueiter" data-comment="qlearning">

<path fill="none" stroke="black" d="M270.71,-144.05C275.97,-136.06 282.36,-126.33 288.23,-117.4"/>
<polygon fill="black" stroke="black" points="291.15,-119.33 293.71,-109.05 285.3,-115.49 291.15,-119.33"/>
</g>

<!-- valueiter&#45;&gt;q -->
<g id="edge6" class="edge" data-name="valueiter-&gt;qlearning" data-comment="valueiter-&gt;q">

<path fill="none" stroke="black" d="M305.58,-72.05C305.58,-64.57 305.58,-55.58 305.58,-47.14"/>
<polygon fill="black" stroke="black" points="309.08,-47.3 305.58,-37.3 302.08,-47.3 309.08,-47.3"/>
</g>
<g id="node7" class="node" pointer-events="visible" data-name="qlearning" data-comment="valueiter-&gt;q">


<text text-anchor="middle" x="305.58" y="-13.8" font-family="Times,serif" font-size="14.00">Q-Learning</text></g>
<g id="edge3" class="edge" data-name="td-&gt;policyiter" data-comment="valueiter-&gt;q">

<path fill="none" stroke="black" d="M241.66,-144.05C232.67,-135.54 221.59,-125.07 211.67,-115.68"/>
<polygon fill="black" stroke="black" points="214.1,-113.16 204.43,-108.83 209.29,-118.24 214.1,-113.16"/>
</g>
<!-- p -->
<g id="edge4" class="edge" data-name="policyiter-&gt;actorcritic" data-comment="p">

<path fill="none" stroke="black" d="M171.05,-72.05C163.9,-63.71 155.14,-53.49 147.22,-44.25"/>
<polygon fill="black" stroke="black" points="150.12,-42.25 140.95,-36.94 144.8,-46.81 150.12,-42.25"/>
</g>
<!-- t -->

</g>
</svg>