<svg xmlns="http://www.w3.org/2000/svg" xmlns:xlink="http://www.w3.org/1999/xlink" width="364pt" height="188pt" viewBox="0 0 363.75 188"><g id="graph0" class="graph" data-name="G" transform="translate(4,184) scale(1)"><polygon fill="#fff" stroke="none" points="-4 4 -4 -184 359.75 -184 359.75 4 -4 4"/><g id="node1" class="node" data-comment="p" data-name="polopt" pointer-events="visible"><text x="64.58" y="-157.8" font-family="Times,serif" font-size="14" text-anchor="middle">Policy Optimization</text></g><g id="node2" class="node" data-comment="p" data-name="polgrad" pointer-events="visible"><text x="64.58" y="-85.8" font-family="Times,serif" font-size="14" text-anchor="middle">Policy Gradient</text></g><g id="node3" class="node" data-comment="a" data-name="actorcritic" pointer-events="visible"><text x="125.58" y="-13.8" font-family="Times,serif" font-size="14" text-anchor="middle">Actor-Critic</text></g><g id="edge1" class="edge" data-comment="a" data-name="polopt-&gt;polgrad"><path fill="none" stroke="#000" d="M64.58,-144.05C64.58,-136.57 64.58,-127.58 64.58,-119.14"/><polygon fill="#000" stroke="#000" points="68.08 -119.3 64.58 -109.3 61.08 -119.3 68.08 -119.3"/></g><g id="node4" class="node" data-comment="t" data-name="td" pointer-events="visible"><text x="259.58" y="-157.8" font-family="Times,serif" font-size="14" text-anchor="middle">Temporal Difference</text></g><g id="node5" class="node" data-comment="p" data-name="policyiter" pointer-events="visible"><text x="185.58" y="-85.8" font-family="Times,serif" font-size="14" text-anchor="middle">Policy Iteration</text></g><g id="edge2" class="edge" data-comment="p" data-name="polgrad-&gt;actorcritic"><path fill="none" stroke="#000" d="M79.34,-72.05C86.61,-63.71 95.52,-53.49 103.57,-44.25"/><polygon fill="#000" stroke="#000" points="106.02 -46.77 109.95 -36.93 100.74 -42.17 106.02 -46.77"/></g><g id="node6" class="node" data-name="valueiter" pointer-events="visible"><text x="305.58" y="-85.8" font-family="Times,serif" font-size="14" text-anchor="middle">Value Iteration</text></g><g id="edge5" class="edge" data-comment="qlearning" data-name="td-&gt;valueiter"><path fill="none" stroke="#000" d="M270.71,-144.05C275.97,-136.06 282.36,-126.33 288.23,-117.4"/><polygon fill="#000" stroke="#000" points="291.15 -119.33 293.71 -109.05 285.3 -115.49 291.15 -119.33"/></g><g id="edge6" class="edge" data-comment="valueiter-&gt;q" data-name="valueiter-&gt;qlearning"><path fill="none" stroke="#000" d="M305.58,-72.05C305.58,-64.57 305.58,-55.58 305.58,-47.14"/><polygon fill="#000" stroke="#000" points="309.08 -47.3 305.58 -37.3 302.08 -47.3 309.08 -47.3"/></g><g id="node7" class="node" data-comment="valueiter-&gt;q" data-name="qlearning" pointer-events="visible"><text x="305.58" y="-13.8" font-family="Times,serif" font-size="14" text-anchor="middle">Q-Learning</text></g><g id="edge3" class="edge" data-comment="valueiter-&gt;q" data-name="td-&gt;policyiter"><path fill="none" stroke="#000" d="M241.66,-144.05C232.67,-135.54 221.59,-125.07 211.67,-115.68"/><polygon fill="#000" stroke="#000" points="214.1 -113.16 204.43 -108.83 209.29 -118.24 214.1 -113.16"/></g><g id="edge4" class="edge" data-comment="p" data-name="policyiter-&gt;actorcritic"><path fill="none" stroke="#000" d="M171.05,-72.05C163.9,-63.71 155.14,-53.49 147.22,-44.25"/><polygon fill="#000" stroke="#000" points="150.12 -42.25 140.95 -36.94 144.8 -46.81 150.12 -42.25"/></g></g></svg>